<svg xmlns="http://www.w3.org/2000/svg" width="2121" height="1867" fill="none" viewBox="0 0 2121 1867"><path fill="#3b3d5d" d="M850 240c0 1 4 13 4 20a705 705 0 0 0-444 851l2 8 18 52 2 6c4 10 13 44 22 46-1 16 11 28 18 40 53 98 120 173 210 238l8 6q16 11 30 18l6 6c50 30 98 52 154 70l10 4a703 703 0 0 0 142 26l24 2h68l8-2c60-4 108-14 164-32l12-4c59-21 109-48 160-84 3-2 11-1 14-8 6-2 35-24 36-30 7 2 7-4 10-6 69-53 125-128 166-204l22-44q10-21 18-44l4-8 8-22v-6l4-26q4 1 6-4c40-70 23-270 4-349a707 707 0 0 0-428-494v-22a732 732 0 0 1 294 206l2 2a730 730 0 0 1-62 1010 709 709 0 0 1-1052-93A732 732 0 0 1 776 268l8-4 48-20 6-2z"/><path fill="#824a3d" d="M1228 39h2l36 27 2 2c50 54 66 102 64 176v22l-6 32-2 8q-1 6 4 8c-1 0-4 7-10 8l-18 4c-28 11-16 25-26 53-28 79-140 73-165-11-5-18 4-40-18-42-30-3-20 35-30 60-30 72-139 64-162-18-6-23 5-30-15-40l-18-6-12-6c1-2 6-6 6-8q0-6-2-8l-4-40c0-7-4-19-4-20q0-31 6-64v-4l2-4v-8q12-23 22-48v-2l6-6v-2l4-4v-2l4-4 6-6c2-2 6-2 6-8l12-12q145-116 310-27m72 267c1 0 9 11 16-1l6-50c18-326-479-326-460 0 0 7 4 51 6 53s12-2 14-2c28-1 21-8 38-14l24-10c25 1 45-2 70 2q16 2 30 9c8 5 21 21 25 21h42c2-1 14-19 29-25 71-28 103 12 160 17m-386 6c-12 16-9 35-6 54q5 25 24 40c36 31 101 22 120-24 45-108-110-109-138-70m312 106c8-3 25-13 26-22h2l2-2q12-16 14-36c3-21 5-38-14-52-31-23-132-26-140 24a79 79 0 0 0 110 88"/><path fill="#435686" d="m894 92-4 4z"/><path fill="#454a56" d="m1062 1313 1 10c3 4 50 2 58 2 6 0 7-4 7-4l14 2c-2 13 8 57 13 71 22 65 79 75 141 57 4 49 1 99 0 148-56 18-104 28-164 32 3-20-30-153-26-160 1-1 31-4 22-12-2-2-51 6-61 0-6 3-1 9-1 10q-14 82-34 162a704 704 0 0 1-142-26c1-51-2-103 0-154 36 5 80 16 111-10 37-31 36-113 41-118h10c4-1 5 2 4-6q2-3 6-4"/><path fill="#d3b6ad" d="M1618 594c59 43 103 104 142 166 19 79 36 279-4 349-4-25 6-190-2-200-4-6-117-4-134-3-5-102 7-211-2-312"/><path fill="#d3b6ad" d="M558 830h-46c-22 0-66-4-85 0q-9 3-15 11c-6 14-3 176-2 203 1 10-3 45 17 45h105c-1 7 0 17-2 22H410a675 675 0 0 1-10-323c29-38 51-80 82-117q37-41 78-79c-8 78 2 159-2 238"/><path fill="#9a674f" d="M472 1263c25 6 203-7 210 0 8 9-6 210 0 238a684 684 0 0 1-210-238"/><path fill="#e1c3b8" d="M1448 1349c0 34-6 107 0 135 2 9 15 19 20 27-51 36-101 63-160 84l-2-174c54-21 39-27 32-72z"/><path fill="#e1c3b8" d="M844 1349c-1 9-9 41-7 48 5 13 42 18 45 27l-2 177c-56-18-104-40-154-70 3-17 19-28 22-45 5-35 0-98 0-137z"/><path fill="#232633" d="M986 674c-14 1-50 76-50 81 1 5 11 4 14 5l2 6c2 27 35 56 60 68l12 6c2 0 6 4 10 1l6-9c13 22-14 38-18 59 18 130 21 255 14 386-1 10-5 27-4 35 0 4 10 7 6 11h-8c-1 3-7 40-10 49-11 33-30 58-67 61-16 1-61-12-63-10v28c-2 51 1 103 0 154l-10-4 2-177c-3-9-40-14-45-27-2-7 6-39 7-48l2-8c4-23 12-51 14-73 1-10-5-11-6-19 0-13 14-37 16-51 2-13 8-118 4-122-1-1-17 5-21 5-30 2-49-7-67-31l-6-8-4-8c-14-38-2-77 6-114l8-36 12-36c3-14 7-20 8-36 6-3 10-18 12-24 4-11 7-16 8-28 9-4 11-18 18-24l6-2 24-14q31-16 64-30c17-9 31-12 46-28 0 8-2 9-2 12m24 170q-16-9-31-20c-13-11-29-42-35-47q-2-2-5-1c-10 4-113 160-131 180-6-9 18-41 16-42-2-2-18 15-18 5 0-7 95-71 76-103 5 0 4 13 8 11 3-2 44-57 44-60 1-6-7-3-8-5-4-9 32-65 27-66s-89 39-91 44c-1 3 28 80 12 53-15-26-10-83-39-14-22 51-61 179-55 231 9 76 80 76 127 32 17-17 125-176 125-189 0-4-17-7-22-9m8 96c-1-9 1-38-8-34-3 2-46 67-20 74-3 13 37 93 40 117 4 36-14-13-16-20q-19-55-42-109c-13 22-28 47-45 66-8 8-41 33-42 35-3 7 0 28-1 36-1 13-8 98-5 102 3 6 65 12 72 18q2 5 1 6c-7 4-77-20-80-18-2 2-9 37-8 39 2 6 62 19 71 17 14-3 10-28 14-34 10-14 10 30-7 42-13 8-65-13-71-12l-3 8c-4 13-24 118-20 123l30 14c126 47 140-33 150-136 11-112 3-223-10-334m-189-32v2l1-1z"/><path fill="#b89890" d="m854 260 4 40a330 330 0 0 0-298 292q-40 38-78 79c-31 37-53 79-82 117a705 705 0 0 1 454-528"/><path fill="#232633" d="m1260 698 56 28q2 2 6 2v2c1 1 21 16 24 20 0 8 20 48 28 56 2 15 5 20 10 34l2 2 6 12 2 6 2 8 4 8c16 43 48 113 42 158l-2 8-4 9-8 18-4 8c-16 26-107 104-110 112-3 12 13 40 14 56 1 36 2 58 8 96l2 8c7 45 22 51-32 72l2 174-12 4c1-49 4-99 0-148v-28c-4-4-65 27-105-6-31-26-33-90-37-94h-12c2-12 7-3 10-6 1-1-4-32-4-38l-2-23v-36c0-3-4-11-2-17h8v28c3 49 9 181 70 192 19 3 105-10 113-28 3-6-16-111-19-124q1-4-1-6c-4-1-64 21-77 10l-10-26c-2-17 1-21 8-4 4 10 3 22 15 24s67-8 69-22c0-4-8-32-10-33-1-1-31 8-36 9-9 2-49 15-44 0a39 39 0 0 0 18-6c23-2 82-3 46-36 9-5 11-8 12-18 4-29-32-101-68-82q-1-2-4-2l2-12 38-33c3-3 6-3 6-8 12-6 15-13 22-22l6-6c4-8 6 0 4-14 8-5 13-17 20-22 4-4 27-17 31-16 15 3-32 22-29 30 16-1 46-10 56 8-69-18-93 51-142 83 34 9 54 37 62 70 2 8 3 38 5 38 5 1 62-57 69-64 29-32 51-56 48-101-2-29-13-55-22-81-6-20-71-183-81-183-7 0-17 50-19 52h-6c-4-6 19-55 18-58-2-4-88-46-92-42-2 2 26 48 26 57 0 14-27 21-28 24-2 8 27 20 28 26 3 17-44-20-44-24-1-7 33-22 34-23 2-5-39-93-60-92q5 50-2 101c-1 9-6 56-8 60-4 7-4 3-8 5l6-68 4-24 2-23v-30c0-13-6-32-12-43 9-4 48 35 56 41 10 6 27 8 36 13m71 278v2l1-1z"/><path fill="#9a674f" d="M1694 1263c-41 76-97 151-166 204l-4-206z"/><path fill="#824a3d" d="M748 1341v8c0 39 5 102 0 137-3 17-19 28-22 45l-6-6c-1-7 20-31 20-33v-287l-50 57v245l-8-6c-6-28 8-229 0-238-7-7-185 6-210 0-7-12-19-24-18-40h239c8-4-2-37 1-46H432l-2-6h267l53-54H622v-6c11 3 140-4 140 3v48c0 5-12 11-14 20-7 34 0 119 0 159m8-216c-7 5-54 48-54 51v39c7-5 54-53 54-57z"/><path fill="#b89890" d="M1760 760c-39-62-83-123-142-166-15-165-135-265-292-296l6-32a707 707 0 0 1 428 494"/><path fill="#824a3d" d="M1492 1105v8h-4l-38 1c-1 4 52 47 59 53h229l-4 8h-222v44h204l-22 44-170-2 4 206c-3 2-3 8-10 6l-2-216-60-56v283c0 2 17 22 18 22l8-3c-3 7-11 6-14 8-5-8-18-18-20-27-6-28 0-101 0-135v-8c0-41 7-130 0-165-2-8-14-16-14-18v-53c0-2 53 3 58 0m12 108v-39c0-4-55-48-62-55v37c0 5 55 50 62 57"/><path fill="#a97457" d="M1518 1473c-1 6-30 28-36 30q-5 3-8 3c-3 0-18-20-18-22v-283l60 56z"/><path fill="#a97457" d="M720 1525q-14-7-30-18v-245l50-57v287c0 2-21 26-20 33"/><path fill="#be876e" d="M622 1117h128l-53 54H430l-18-52h116c-6 7-21 2-27 7-4 3-7 18 0 21 6 2 109 1 122 0 10 0 30 1 31-9 2-21-26-9-32-21"/><path fill="#9a674f" d="M432 1177h262c-3 9 7 42-1 46H454c-9-2-18-36-22-46"/><path fill="#9a674f" d="M1734 1175q-8 23-18 44h-204v-44z"/><path fill="#686c7c" d="M1748 910c1 67 6 136 2 203l-4 26h-212V912h10v55c0 1 7 7 10 7v8c-17 5-12 65-2 68v5c-13 4-10 63-3 67 16 9 157-4 186 1 8-3 8-64-1-68v-7q3-1 6-10c1-9 3-55-6-58v-6l6-7c3-15-8-53 8-57"/><path fill="#353a45" d="M1560 906c3 5 20-2 24 4-3 0-34 0-34 2v56h181l3-3v-53c0-6-98 0-106 0l120-2c-16 4-5 42-8 57l-6 7h-180c-3 0-10-6-10-7v-55h-10v227h212v6h-213c-3 0-34-21-37-24l-2-2h-2v-85c0-15-2-109 0-114 6-11 57-14 68-14m-32 8-30 11c4 56-5 114-2 169 2 26 9 28 32 39z"/><path fill="#be876e" d="M1488 1113h4v6h2l2 2c3 3 34 24 37 24h213l-8 22h-229c-7-6-60-49-59-53z"/><path fill="#e1c3b8" d="m1064 1633 29-164 31 164z"/><path fill="#232633" d="M1066 1469c0-1-5-7 1-10 10 6 59-2 61 0 9 8-21 11-22 12-4 7 29 140 26 160l-8 2-31-164-29 164h-8l26-159c-1-7-11-4-16-5"/><path fill="#353a45" d="m1056 1633-24-2q20-80 34-162c5 1 15-2 16 5z"/><path fill="#454a56" d="M1566 906h54c17-1 130-3 134 3 8 10-2 175 2 200q-2 5-6 4c4-67-1-136-2-203l-120 2-44-2c-4-6-21 1-24-4z"/><path fill="#824a3d" d="M530 1111q0 5-2 8H412l-2-8z"/><path fill="#f7ab97" d="M1300 306c-57-5-89-45-160-17-15 6-28 25-29 25h-42c-4 0-17-16-25-21q-14-7-30-9v-8c26-2 42-4 30-35-39 15-117-3-124 51-17 6-10 13-38 14-5-27 23-57 26-79 6-49-22-88 35-128 53-36 86 3 140 5 67 4 132-56 182 19 29 43 6 65 11 104 3 20 34 50 24 79m-162-73c-3 2-10 25 1 29 10 3 52-3 71 1 13 2 45 21 47 21 24-1-23-40-33-45-14-6-75-15-86-6"/><path fill="#ca8c85" d="M1300 306c10-29-21-59-24-79-5-39 18-61-11-104-50-75-115-15-182-19-54-2-87-41-140-5-57 40-29 79-35 128-3 22-31 52-26 79-2 0-12 4-14 2s-6-46-6-53c-19-326 478-326 460 0l-6 50c-7 12-15 1-16 1"/><path fill="#f7ab97" d="m1300 326 2 10c-2 29-19 88-34 113-6 11-46 55-57 53-4-1-11-28-23-36l-4-2h-2c1-8-8-4-10-4h-4c-4-8-23-6-30-6h-6l-14-4c20-25-22-2-37-4-14-1-17-9-23-12 4-23 26-48 22-73-3-19-12 28-13 30-4 11-17 33-17 43s11 19 20 22v4h-6c-3-4-5 0-6 0-16 3-45 11-57 22-9 7-18 30-20 30-3 0-37-25-41-29-32-30-45-73-54-115l-4-24c-1-5-6-17 2-16 20 10 9 17 15 40 23 82 132 90 162 18 10-25 0-63 30-60 22 2 13 24 18 42 25 84 137 90 165 11 10-28-2-42 26-53"/><path fill="#b89890" d="M1616 906h-24c-12-199 57-422-153-538q-30-17-65-28c-6-15-31-28-46-26q-5-2-4-8c61 10 124 37 173 75 169 130 102 341 119 525"/><path fill="#b89890" d="M860 308c0 2-5 6-6 8-18-2-37 8-44 24-84 22-161 80-196 161-44 104-22 219-28 329h-20c6-122-21-247 40-359 48-90 153-152 254-163"/><path fill="#f7ab97" d="M932 406c-1-14-11-26-14-40q-6-26-4-54c28-39 183-38 138 70-19 46-84 55-120 24m4-54c7 51 148 49 106-20-13-56-113-34-106 20"/><path fill="#f7ab97" d="M1256 306c10 12 6 37 4 52-1 6-7 29-10 34-2 4-20 19-25 23-3 2-6 3 1 3a79 79 0 0 1-110-88c8-50 109-47 140-24m-120 22c-33 79 99 75 108 24 10-56-88-72-108-24"/><path fill="#a2817b" d="M858 300q2 2 2 8a337 337 0 0 0-254 163c-61 112-34 237-40 359h-8c4-79-6-160 2-238a330 330 0 0 1 298-292"/><path fill="#a2817b" d="M1618 594c9 101-3 210 2 312h-4c-17-184 50-395-119-525-49-38-112-65-173-75l2-8c157 31 277 131 292 296"/><path fill="#12090a" d="M920 292c7-54 85-36 124-51 12 31-4 33-30 35-24 3-46 0-70 6z"/><path fill="#9a674f" d="m854 316 12 6-2 6c-19-11-42 2-47 22-13 45 18 105 69 102l2 12c-42-2-74-32-80-74q1-2-2-4v-6l-2-10 4-24 2-6c7-16 26-26 44-24"/><path fill="#9a674f" d="m1374 340 4 10 2 20-4 22v10l-2 4-4 8-2 2c-16 27-38 51-72 46l2-10c51 4 88-65 68-108-9-18-31-26-48-16v-6c6-1 9-8 10-8 15-2 40 11 46 26"/><path fill="#e1c3b8" d="M918 366h-10c-3-19-6-38 6-54q-2 28 4 54"/><path fill="#e1c3b8" d="M1270 358h-10c2-15 6-40-4-52 19 14 17 31 14 52"/><path fill="#f5f3f5" d="M918 366c3 14 13 26 14 40a68 68 0 0 1-24-40z"/><path fill="#f5f3f5" d="M1270 358q-2 20-14 36l-2 2h-2q1-2-2-4c3-5 9-28 10-34z"/><path fill="#b89890" d="M1014 276v8c-25-4-45-1-70-2 24-6 46-3 70-6"/><path fill="#a2817b" d="M884 328c-8-1-3 11-2 16h-8c-1-5-5-13-10-16l2-6z"/><path fill="#e1c3b8" d="M1252 396c-1 9-18 19-26 22-7 0-4-1-1-4 5-3 23-18 25-22q3 2 2 4"/><path fill="#a2817b" d="M1318 322v6q-5 3-6 8h-10l-2-10z"/><path fill="#e1c3b8" d="m1254 396 2-2z"/><path fill="#353a45" d="m1058 1279 4 4c1 6-3 17 0 30q-4 1-6 4c-1 1-6-1-4 6h-10c-5 5-4 87-41 118-31 26-75 15-111 10v-28c2-2 47 11 63 10 36-3 56-28 67-61 3-9 9-46 10-49h8c4-4-6-7-6-11-1-8 3-25 4-35 6 5 17 1 22 2"/><path fill="#353a45" d="M1130 1279h18c0 6 5 37 4 38-3 3-8-6-10 6h12c4 4 6 68 37 94 40 33 101 2 105 6v28c-62 18-119 8-141-57-5-14-15-58-13-71l-14-2c1-6-3-4-7-4h-51v-30h43c13 0 12-6 17-8"/><path fill="#968ba2" d="m1126 1273 2 2 2 4c-5 2-4 8-17 8h-43v30h51c4 0 8-2 7 4 0 0-1 4-7 4-8 0-55 2-58-2l-1-10c-3-13 1-24 0-30l40-10zm-3 4v2l1-1z"/><path fill="#232633" d="M1056 1317c1 8 0 5-4 6-2-7 3-5 4-6"/><path fill="#686c7c" d="M410 1044c7 0 5 1 6-5 3-29-6-189 5-199q4-4 12-4l294 2 7 13v189c0 3 4 1 6 2v9c-1 11 2 38-17 38H618c-2 10 2 15 4 22v6c6 12 34 0 32 21-1 10-21 9-31 9-13 1-116 2-122 0-7-3-4-18 0-21 6-5 21 0 27-7q2-3 2-8c2-5 1-15 2-22H427c-20 0-16-35-17-45m21-196-3 3v176l3 3h288l3-3V851l-3-3zm303 198H416v28c0 3 10 8 13 8 55 8 219 7 276 1 8 0 23-1 27-8 2-5 3-28 2-29m-194 55q-4 11-4 22h78l-2-22c-1-4 0-10-5-12-3-1-65-2-67 0zm-36 38c5 5 125-3 142 0 1-9-1-8-9-10-12-1-125-1-130 2q-4 5-3 8"/><path fill="#353a45" d="M512 830h108q44-2 88 0h6q9-1 18 2c1 0 4 7 8 6q2 97 0 196v8c-2-1-6 1-6-2V851l-7-13-294-2q-7 0-12 4c-11 10-2 170-5 199-1 6 1 5-6 5-1-27-4-189 2-203q5-8 15-11c19-4 63 0 85 0"/><path fill="#a2817b" d="M516 830h-4z"/><path fill="#a2817b" d="M1448 1341v8h-110l-2-8z"/><path fill="#a2817b" d="m846 1341-2 8h-96v-8z"/><path fill="#454a56" d="M868 1273c24 0 53 20 74 4 17-12 17-56 7-42-4 6 0 31-14 34-9 2-69-11-71-17-1-2 6-37 8-39 3-2 73 22 80 18q1-2-1-6c-7-6-68-12-72-18-3-4 4-89 5-102 39-20 67-59 88-97l42 69c2 7 20 56 16 20-3-24-43-104-40-117 1-4 25-33 28-40 13 111 21 222 10 334-10 103-24 183-150 136l-30-14c-4-5 16-110 20-123m138-147c-15 4-11 30 7 27s11-32-7-27m10 120c-11-11-34 6-19 19 15 14 29-9 19-19"/><path fill="#454a56" d="M780 1010c-6-52 33-180 55-231 29-69 24-12 39 14 16 27-13-50-12-53 2-5 86-45 91-44s-31 57-27 66c1 2 9-1 8 5 0 3-41 58-44 60-4 2-3-11-8-11 19 32-76 96-76 103 0 10 16-7 18-5 2 1-22 33-16 42 18-20 121-176 131-180q3-1 5 1c6 5 22 36 35 47q15 11 31 20c-43 62-138 268-230 166"/><path fill="#d1b1a8" d="M786 1050c18 24 37 33 67 31 4 0 20-6 21-6 4 5-2 110-4 123-2 14-16 38-16 51 1 8 7 9 6 19-2 22-10 50-14 73h-98c0-40-7-125 0-159 2-9 14-15 14-20v-48c0-7-129 0-140-3-2-7-6-12-4-22h105c19 0 16-27 17-38z"/><path fill="#5c6d8a" d="M740 838V614c16 1 96-6 106 0 5 4 1 107 2 122-7 6-10 20-18 24 1-13 5-127 0-132h-10c-6 6 3 141 2 160-2 6-6 21-12 24 5-59-4-125 0-184h-10c-8 8 5 194 2 220l-12 36c-10-31 6-246-2-256h-8l2 292c-8 37-20 76-6 114h-36q2-99 0-196m28-210c-2-1-8 1-8 3v292c0 3 8 3 8 0z"/><path fill="#f5f3f5" d="M1066 860c-13 4-30 5-32 23-3 22 20 69 22 97 4 70-13 153-9 225 5 8 41 52 46 52s36-39 43-46l4 68h-10l-2-4-2-2h-62l-6 6c-5-1-16 3-22-2 7-131 4-256-14-386 4-21 31-37 18-59 9-12 11-20 4-34l20-24c17 34 2 49 2 86"/><path fill="#968ba2" d="M952 586q14 14 32 24c0 17 4 31 4 52-15 16-29 19-46 28-2-5 3-54 0-54h-62c-5 0 2 76-2 84l-24 14c2-11-2-25-2-35v-54c0-18 0-22-2-39 0-3-3-13 1-14z"/><path fill="#353a45" d="M1010 844c5 2 22 5 22 9 0 13-108 172-125 189-47 44-118 44-127-32 92 102 187-104 230-166"/><path fill="#484f67" d="M800 486c1 9 0 54 2 56 1 1 15-2 20 1 9 5 0 19 2 21 1 1 16-1 18 2 4 7-8 44 8 40 2 17 2 21 2 39v54c0 10 4 24 2 35l-6 2c-1-15 3-118-2-122-10-6-90 1-106 0v224c-4 1-7-6-8-6 4-41 2-82 2-122V609c3-5 11-2 12-3v-28c3-26 11-9 16-14 1-1-3-16 3-20 5-4 18-1 19-2 2-2 3-48 4-56 0-6-2-37 3-38 11-3 8 31 9 38m-4 58v-53s-2-6-4-5c4 16-9 48 4 58m-28 20c2 2 47 3 49 2 6-3 6-16-4-18-3-1-43 0-45 2zm66 42v-35c-7 2-82-3-82 1v34z"/><path fill="#435686" d="M878 720c4-8-3-84 2-84h62c3 0-2 49 0 54q-33 14-64 30"/><path fill="#353a45" d="m1014 1077-42-69c-21 38-49 77-88 97 1-8-2-29 1-35 1-3 35-28 42-36 17-19 32-44 45-66q23 54 42 109"/><path fill="#94aec2" d="m782 920-2-292h8c8 10-8 225 2 256z"/><path fill="#f5f3f5" d="M952 766c16-33 18 1 33 18q17 18 39 28l-12 22c-25-12-58-41-60-68"/><path fill="#94aec2" d="M802 848c3-26-10-212-2-220h10c-4 59 5 125 0 184-1 16-5 22-8 36"/><path fill="#454a56" d="M986 674c-1 12 2 28 0 40-2 9-13 21-14 28-8-2-20 11-22 18-3-1-13 0-14-5 0-5 36-80 50-81"/><path fill="#94aec2" d="M822 788c1-19-8-154-2-160h10c5 5 1 119 0 132-1 12-4 17-8 28"/><path fill="#824a3d" d="M992 590q7-1 4 6c-5 32 5 77 0 114-2 13-14 30-20 42-1-2-5-2-4-10 1-7 12-19 14-28 2-12-1-28 0-40 0-3 2-4 2-12 0-21-4-35-4-52l2-12 2-4 2-2z"/><path fill="#968ba2" d="M972 742c-1 8 3 8 4 10 7 20 32 48 54 52 6 1 6 2 12-6h2c7 14 5 22-4 34l-6 9c-4 3-8-1-10-1 4-3 16-19 14-23l-14-5q-22-10-39-28c-15-17-17-51-33-18l-2-6c2-7 14-20 22-18"/><path fill="#353a45" d="M990 980c-26-7 17-72 20-74 9-4 7 25 8 34-3 7-27 36-28 40"/><path fill="#353a45" d="M942 1277c-21 16-50-4-74-4l3-8c6-1 58 20 71 12"/><path fill="#e1c3b8" d="m780 1042 6 8-46 2v-10c11 2 28-2 40 0"/><path fill="#bcbfc9" d="m1024 812 14 5c2 4-10 20-14 23l-12-6z"/><path fill="#a2817b" d="m776 1034 4 8c-12-2-29 2-40 0v-8z"/><path fill="#454a56" d="m829 908 1 1-1 1z"/><path fill="#454a56" d="M1168 832c4-2 4 2 8-5 2-4 7-51 8-60q7-51 2-101c21-1 62 86 60 92-1 1-35 16-34 23 0 4 47 41 44 24-1-6-30-18-28-26 1-3 28-10 28-24 0-9-28-55-26-57 4-4 90 38 92 42 1 3-22 52-18 58h6c2-2 12-52 19-52 10 0 75 163 81 183 9 26 20 52 22 81-26 52-75 94-122 127-8-33-28-61-62-71 49-31 73-100 142-82-10-18-40-9-56-8-3-8 44-27 29-30-4-1-27 12-31 16l-34-100 4-42c-6-1-7 10-7 13-5 19-7 42-3 61l-2 4c-5-17-18-82-35-84-60 21-137 30-195 53-13 5-22 6-21 23 14 33 63 267 77 278 6 5 13 3 20 3l-4 6h-2c-12 2-16-1-22-11-15-23-30-114-41-147-1-3 0-6-5-5 0-11 4-25-6-34-2-28-25-75-22-97 2-18 19-19 32-23l8-4c10-4 26-7 38-10l8-2c15-5 34-6 48-12"/><path fill="#d3f6f9" d="M1166 1137c-14 2-27 9-42 10-1-31-75-250-67-261 6-9 174-46 197-54l48 172c-7 9-10 16-22 22-42 18-108 23-153 41l-27-81c1 10 19 83 23 85 12 5 128-39 151-37l-38 34c-2-22-9 3-10 3-1 1-10-11-14-7s7 10 8 12c0 5-9 15 6 13v2l-32 4c-21 1-3-2-2-4 2-6-10-8-10-8 0-5 19-1 11-10-9-10-32 20-17 24l-16 4c-10-4-24-7-8-15-19-9-28 10-8 21-20 2-3 6 6 10 0 11 10 16 19 16zm72-281c-15-3-18 13-2 12-1 2-15 2-8 8 7 5 27-15 2-14zm-14 8c-26-16-16 26 0 13 9-9-9-2-10-3-4-5 2-14 10-10m-28 2c-5-6-5 11-6 12-3 2-11-11-14-8-1 1 2 20 5 20s3-8 3-8l6 2c4-2-3-10 10 0zm-22 23c6-12-11-21-17-11-9 15 13 18 17 11m-20 9c1-2-1-18-5-20-2 21-9-1-13 4-2 3 3 25 8 18 1-2-3-9-2-10s11 9 12 8m84-14c-17 3-28 5-36 22 9-5 13 5 21-1 14-9-17 2-9-11 3-5 19 3 24 2-28 15 25 3-6-4zm-124 18c-10-2-26 3-2-9-17-10-12 9-14 15l-10 2 6-4-8-4 4-8c-23 7 1 35 8 14 12 0 11 6 16-6 7 1 29 5 19-12-11-19-18 9-19 12m70-4c-11 4-7 7-8 8-3 1-8-6-10-4-1 1 11 20 14 16 2-3-5-18 8-16 3 4 2 12 8 12 0-10-4-12 2-20q-8 0-14 4m-24 8c-7-9-6 11-4 16-16-20-16-16-20 8 8-10 25-2 33-10 6-7-6-1-8-4s0-10-1-10m99 13c3-27-29-4-15 9 3 2 15-5 15-9m-127-7c-3-3-5 5-7 6-5 2-13-12-7 16 8 1 2-8 4-10 1-1 9 9 12 6 1-1-1-18-2-18m110 18c1-1-4-16-5-17-18-13-14 27-5 19 1-1-3-6-2-6 2-2 10 6 12 4m-18 4c2-2-18-36-18 4 6-9 17-4 18-4m-108 2c3-3-20-37-18 4 7-9 17-4 18-4m86 3c11-12-10-25-17-11-6 11 10 18 17 11m-34 8c10 8 23-11 12-19-13-8-19 14-12 19m-22 1c3 1 1 5 3 6 11 2-3-10 8-10 6-1-1 8 9 6l-4-18c-9 5-4 16-16 4zq-6-3-12-2l8-8c-7-4-16 8-12 12 2 1 12-4 10 4l-8 4c12 1 11-2 14-10m120 10c5-6 1-42-20-15-6 7 4 3 4 9 0 2-16 32-18 33-4 2-15-12-20-9l-14 31c-5 3-14-8-17-7-4 1-15 31-17 32-4 2-13-10-18-8-2 1-19 32-18 34 5 10 20-24 23-24 1 0 12 10 17 7 1 0 10-27 14-29 7-3 13 8 17 8 4-1 13-30 17-32 7-3 16 10 17 10 5-1 21-41 23-42 2-2 9 3 10 2m-136 2c2-2-8-20-14-15-1 1-5 18-4 19 2 2 7-5 9-6q6 0 9 2m-23-10c-10-11-24 10-13 17 9 6 22-8 13-17"/><path fill="#d1b1a8" d="M1492 1079v26c-5 3-58-2-58 0v53c0 2 12 10 14 18 7 35 0 124 0 165h-112c-6-38-7-60-8-96-1-16-17-44-14-56 3-8 94-86 110-112z"/><path fill="#454a56" d="m1228 1249 10 26c16 19 57-1 78-4 3 13 22 118 19 124-8 18-94 31-113 28-61-11-67-143-70-192z"/><path fill="#5c6d8a" d="M1560 874v32c-11 0-62 3-68 14-2 5 0 99 0 114h-50c6-45-26-115-42-158z"/><path fill="#968ba2" d="M1316 588v80c-7 1-54-2-56 0v30c-9-5-26-7-36-13-8-6-47-45-56-41-3 1 1 10-1 16q-7 29-33 44v-6c15-13 21-19 24-38 1-7 5-14-2-20 24-10 68-45 86-64 22 14 50-2 74 12"/><path fill="#5c6d8a" d="M1384 756c-9 10-14 3-17 8-3 4-3 17 5 20h2q-3 10 0 22c-8-8-28-48-28-56l6-20 2-8 4-12 2-8 4-12 4-8 4-12 2-8 4-10 2-10 4-10 2-8 4-12 2-8 4-12 4-8q11-38 26-74l2 205c-3 11-50 23-44 41"/><path fill="#454a56" d="m1308 998-6 6-48-172c-23 8-191 45-197 54-8 11 66 230 67 261 15-1 28-8 42-10 36-4-4 17-14 24-15 0-26 13-36-5-7-14-69-246-70-262q-2-9 4-15c7-9 198-60 208-56 10 5 43 154 50 175"/><path fill="#484f67" d="M1316 588c0-9-2-31 2-37 4-5 112-58 116-53 3 3 0 67 0 78v104c0 7-2 25 0 30s4 0 4 0c6-2 17-12 21-12s9 7 15 8c0 0 2 5 4 0v-28c0-11-3-75 0-78h12c5-5-11-13 14-16h48q3 2 4 6c-8 2-58-2-60 0-3 3 8 21-12 16v107c0 3 43 26 48 32 4 4 0 11 4 14 2 2 12 1 14 3 0 1 3 21 2 22h-10v-6c1-2 8-5 2-10-4-4-9-2-14-2-4-4 0-11-4-17-2-4-63-43-67-43-6 0-68 41-71 48l-4 2c-6-18 41-30 44-41l-2-205q1-4-3-4c-5 1-96 44-99 49-4 6-2 21-2 29v144q-4 0-6-2z"/><path fill="#968ba2" d="M1290 898c6 22 20 65 22 86 2 14 0 6-4 14-7-21-40-170-50-175-10-4-201 47-208 56q-6 7-4 15c1 16 63 248 70 262 10 18 21 5 36 5l-16 10c-7 0-14 2-20-3-14-11-63-245-77-278-1-17 8-18 21-23 58-23 135-32 195-53 17 2 30 67 35 84"/><path fill="#f5f3f5" d="M1178 740c-7 3-22 46-25 46s-31-40-37-44q18-15 18-38 26-15 33-44c2-5-2-15 1-16 6 11 12 30 12 43v30z"/><path fill="#353a45" d="M1432 1010c3 45-19 69-48 100-7 8-64 66-69 65-2 0-3-30-5-38 47-33 96-75 122-127"/><path fill="#9a674f" d="M1226 1091c7 1 7 3 10 4q-4 0-6 2c-16 5-77 4-74 21 4 23 63-5 23 33-11 11-46 24-37 39s35-9 42-5c10 7-20 5-5 16 11 8 19 0 26 3 3 1 1 7 10 10 30 10 42-23 59-41l10-8c0 5-4 15-6 18l-30 34a39 39 0 0 1-18 6c-23 2-19-6-29-9-6-2-12 0-19-2-16-4-8-11-30-9h-8l-4 2c-2-10-10-15-8-28l4-6 16-10c10-7 50-28 14-24l3-4c-9 0-19-5-19-16q0-10 10-16l16-4 18-2z"/><path fill="#f5f3f5" d="M1168 832c-14 6-33 7-48 12-1-29-17-52 6-76 26 38 26 39 48-4z"/><path fill="#454a56" d="M1236 1245c13-1 31-10 38-22 5-1 35-10 36-9 2 1 10 29 10 33-2 14-58 24-69 22-12-2-11-14-15-24"/><path fill="#353a45" d="M1230 1223c-5 15 35 2 44 0-7 12-25 21-38 22-7-17-10-13-8 4l-76-18v-28c22-2 14 5 30 9 7 2 13 0 19 2 10 3 6 11 29 9"/><path fill="#435686" d="M1316 668v58l-56-28v-30c2-2 49 1 56 0"/><path fill="#353a45" d="m1298 862 34 100c-7 5-12 17-20 22-2-21-16-64-22-86l2-4q6-15 6-32"/><path fill="#8286a8" d="m1454 784-20 18c-1-10-15-8-16-6v26c-10 4-14 22-16 32h-10l-6-12h16v-46c-29-6-10 28-18 44-5-14-8-19-10-34q-3-12 0-22c20 3 58 0 80 0"/><path fill="#484f67" d="M1402 854h144c2 8 5 17 14 14v6l-160 2-4-8c18-4 144 4 150 0v-8c-6-5-134 3-152 0l-2-6z"/><path fill="#f5f3f5" d="M1306 1163c-25 15-13 6-17-14-4-18-15-38-29-51-8-7-21-10-24-13l2-4c36-19 72 53 68 82"/><path fill="#968ba2" d="m1238 1081-2 4c3 3 16 6 24 13 14 13 25 33 29 51 4 20-8 29 17 14-1 10-3 13-12 18q-7 6-16 2c2-3 6-13 6-18 1-25-24-62-48-70-3-1-3-3-10-4v-2c3-1 7-7 8-10q4 0 4 2"/><path fill="#8286a8" d="M1394 860c18 3 146-5 152 0v8c-6 4-132-4-150 0z"/><path fill="#8286a8" d="M1274 1034c-23-2-139 42-151 37-4-2-22-75-23-85l27 81c45-18 111-23 153-41 0 5-4 5-6 8"/><path fill="#d1b1a8" d="M1492 1052v19l-64-2 8-17z"/><path fill="#353a45" d="m1248 1217 30-34q9 4 16-2c36 33-23 34-46 36"/><path fill="#94aec2" d="m1178 740-4 24c-22 43-22 42-48 4l-6-12-8-10 4-4c6 4 34 44 37 44s18-43 25-46"/><path fill="#484f67" d="M1384 840c8-16-11-50 18-44v46h-16z"/><path fill="#bcbfc9" d="M1148 1279h-8l-4-68 4-6 4-2c-2 6 2 14 2 17v36z"/><path fill="#e1c3b8" d="M1492 1042v10h-56l4-10z"/><path fill="#a2817b" d="M1492 1071v8l-68-2 4-8z"/><path fill="#353a45" d="M1238 1275c13 11 73-11 77-10q2 2 1 6c-21 3-62 23-78 4"/><path fill="#a2817b" d="M1492 1034v8h-52l2-8z"/><path fill="#7082aa" d="M1226 1089c-15 2-6-8-6-13-1-2-12-9-8-12s13 8 14 7c1 0 8-25 10-4l-2 12c-1 3-5 9-8 10"/><path fill="#8286a8" d="m1352 730-6 20c-3-4-23-19-24-20z"/><path fill="#94aec2" d="m1354 722-2 8h-30v-8z"/><path fill="#454a56" d="m1331 976 1 1-1 1z"/><path fill="#a97457" d="M756 1125v33c0 4-47 52-54 57v-39c0-3 47-46 54-51"/><path fill="#a97457" d="M1504 1213c-7-7-62-52-62-57v-37c7 7 62 51 62 55z"/><path fill="#353a45" d="M1734 980c9 3 7 49 6 58q-3 9-6 10l-182 2c-10-3-15-63 2-68 45-14 130 7 180-2m0 8c-12 2-184-9-184 1v53h184z"/><path fill="#353a45" d="M1734 1056c9 3 9 64 1 67-29-5-170 8-186-1-7-4-10-63 3-67zm0 5h-181l-3 3v50l3 3h178l3-3z"/><path fill="#454a56" d="M1734 1048v7h-182v-5z"/><path fill="#484f67" d="M1734 974v6c-50 9-135-12-180 2v-8z"/><path fill="#686c7c" d="M1628 912c8 0 106-6 106 0v53l-3 3h-181v-56c0-2 31-2 34-2zm48 40v-21c-9-22-12 36 0 21m20 0c1-1 2-26-5-24-6 1-4 35 5 24m20 0c1-1 2-26-5-24-6 1-4 35 5 24m-149-18c-9 8 6 20 13 11s-6-18-13-11"/><path fill="#484f67" d="M1528 914v219c-23-11-30-13-32-39-3-55 6-113 2-169z"/><path fill="#a2817b" d="m1496 1121-2-2z"/><path fill="#a2817b" d="M1492 1119v-2z"/><path fill="#e1c3b8" d="M1528 488c13 16 30 30 40 50q16 36 18 77c7 94-5 196 0 291h-20c-10-138 29-292-38-418"/><path fill="#a2817b" d="M1528 488c67 126 28 280 38 418h-6V684l-2-2c-5-2-17 3-22-2h24c2-2-2-10-2-10l2-32-2-10c-1-10 0-29-2-38q-1-4-4-6c-3-37-19-68-38-98q-26-41-64-71c-8-5-60-35-65-35-9 2-1 13-9 12l4-22c68 22 106 65 148 118"/><path fill="#a2817b" d="M1592 906h-6c-5-95 7-197 0-291q-2-41-18-77c-20-92-103-161-190-188l-4-10q35 11 65 28c210 116 141 339 153 538"/><path fill="#12090a" d="M1138 233c11-9 72 0 86 6 10 5 57 44 33 45-2 0-34-19-47-21-19-4-61 2-71-1-11-4-4-27-1-29"/><path fill="#12090a" d="M1312 336c-2 10 1 29-2 40l-2 6c-6 21-5 49-10 70l-2 10-8 30c-11 38-18 55-46 84-18 19-62 54-86 64l-26 6c-19-2-17-6-4-14-1 14 34-4 40-7 84-45 123-119 128-213-6 29-53 94-82 99-19 3-10-24-29-37-9-5-48-15-58-14-12 1-18 10-28 12-15 2-24-6-36-6s-52 17-60 26c-21 23 2 46-46 14q-17-13-33-29l-30-51c6 69 29 140 94 172l-2 12q-18-10-32-24c-35-33-46-54-58-100l-6-22-2-12-10-84h10c9 42 22 85 54 115 4 4 38 29 41 29 2 0 11-23 20-30 12-11 41-19 57-22h12c36 6 32-3 62-6h6l30 6h4l10 4h2l4 2c12 8 19 35 23 36 11 2 51-42 57-53 15-25 32-84 34-113zm-16 72v-4h-2v4zm-404 12v-4h-2v4z"/><path fill="#a97457" d="M1058 434c6 3 9 11 23 12 15 2 57-21 37 4-17 2-24 13-48 6-9-3-20-12-20-22z"/><path fill="#9a674f" d="M1050 434c0-10 13-32 17-43 1-2 10-49 13-30 4 25-18 50-22 73z"/><path fill="#ca8c85" d="m1118 450 14 4c-30 3-26 12-62 6v-4c24 7 31-4 48-6"/><path fill="#824a3d" d="m882 344 4 24h-10l-2-24z"/><path fill="#ca8c85" d="M1138 454c7 0 26-2 30 6z"/><path fill="#ca8c85" d="M1172 460c2 0 11-4 10 4z"/><path fill="#ca8c85" d="M1064 460h-6c1 0 3-4 6 0"/><path fill="#ca8c85" d="m1188 466-4-2z"/><path fill="#a2817b" d="m810 340-2 6c-98 33-171 95-200 196-27 92-9 193-14 288h-8c6-110-16-225 28-329 35-81 112-139 196-161"/><path fill="#fdfdfd" fill-opacity=".99" d="m1002 310-8 4c-13 2-24 16-26 28-4 31 19 50 48 38q13-3 18-16c6-13 4-32-8-42l2-2q9 5 14 12c42 69-99 71-106 20 13-27 35-44 66-42"/><path fill="#0f090a" fill-opacity=".99" d="M1042 332q-5-8-14-12c-10-6-13-9-26-10-31-2-53 15-66 42-7-54 93-76 106-20"/><path fill="#fdfdfd" fill-opacity=".99" d="M1244 352c-9 51-141 55-108-24l20-8c-16 13-15 38-2 52 10 11 26 16 40 10q10-6 16-16c12-27-5-57-36-54 31-9 59 12 70 40"/><path fill="#0f090a" fill-opacity=".99" d="M1244 352c-11-28-39-49-70-40-2 0-16 6-18 8l-20 8c20-48 118-32 108 24"/><path fill="#7082aa" d="M806 380v6c0 1-6 5 2 4 6 42 38 72 80 74l6 22h-94c-1-7 2-41-9-38-5 1-3 32-3 38l-120-2c32-49 79-93 138-104"/><path fill="#d1b1a8" d="M804 370c-71 19-109 64-152 118l-44 54a289 289 0 0 1 200-196z"/><path fill="#f7ab97" d="M864 328c5 3 9 11 10 16l2 24 10 84c-51 3-82-57-69-102 5-20 28-33 47-22m2 38c-6-15-29-32-36-10-7 24 5 69 34 70 17 1-2-13-2-25 0-16 14-11 4-35"/><path fill="#a2817b" d="m804 370 2 10c-59 11-106 55-138 104-17 27-25 38-34 70-5 16-8 25-10 42q-4 37-4 76v6l2 53v72l-2 27h-6c6-114-22-238 38-342 43-54 81-99 152-118"/><path fill="#a2817b" d="M808 390c-8 1-2-3-2-4q3 2 2 4"/><path fill="#7082aa" d="m1514 486-226 6 8-30c34 5 56-19 72-46l2-2 4-8q2-1 2-4v-10c8 1 0-10 9-12 5 0 57 30 65 35q38 30 64 71"/><path fill="#d1b1a8" d="M1568 538c-10-20-27-34-40-50-42-53-80-96-148-118l-2-20c87 27 170 96 190 188"/><path fill="#f7ab97" d="M1298 452c5-21 4-49 10-70 13-7 15 18 14 27s-15 14-2 15c30 3 42-47 34-70-9-25-39 8-44 22 3-11 0-30 2-40q1-5 6-8c17-10 39-2 48 16 20 43-17 112-68 108"/><path fill="#a2817b" d="m1374 406 2-4q0 3-2 4"/><path fill="#a2817b" d="M1376 398v-2z"/><path fill="#a2817b" d="m1368 416 2-2z"/><path fill="#454a56" d="M1088 1273h14l-40 10-4-4 6-6z"/><path fill="#353a45" d="m1128 1275-2-2z"/><path fill="#454a56" d="m1123 1277 1 1-1 1z"/><path fill="#bcbfc9" d="M734 1046c1 1 0 24-2 29-4 7-19 8-27 8-57 6-221 7-276-1-3 0-13-5-13-8v-28zm-165 25c8 8 22-4 14-13-9-11-23 4-14 13"/><path fill="#353a45" d="M431 848h288l3 3v176l-3 3H431l-3-3V851zm285 4q-5 0-7 2H434v168c0 14 260-9 282 2z"/><path fill="#bcbfc9" d="m612 1101 2 22h-78q0-11 4-22z"/><path fill="#bcbfc9" d="M504 1139q-1-3 3-8c5-3 118-3 130-2 8 2 10 1 9 10-17-3-137 5-142 0"/><path fill="#968ba2" d="M540 1101v-12c2-2 64-1 67 0 5 2 4 8 5 12z"/><path fill="#5c6d8a" d="M708 830h-88l2-27v-72l-2-53c11 3 83-5 87 0 5 6-2 133 1 152m-12-134c-3-2-61 0-70 0v8h70zm0 18c-2-2-56 0-65 0-10 0-8 10-4 10h69zm0 20c-3-2-60 0-69 0-2 0-4 6-3 8h72zm0 18c-3-2-60 0-69 0-2 0-4 6-3 8h72zm0 20c-3-3-63 1-72 0-1 2 1 8 3 8h69zm0 18c-3-2-60 0-69 0q-4 2-3 8h72zm0 28c1-3 0-10-3-10h-66c-4 0-4 10 0 10z"/><path fill="#e1c3b8" d="M614 830h-20c5-95-13-196 14-288l44-54c-60 104-32 228-38 342"/><path fill="#5c6d8a" d="M734 710c0 40 2 81-2 122q-9-3-18-2c-3-40-1-80-2-120z"/><path fill="#484f67" d="M690 672h22v38c1 40-1 80 2 120h-6c-3-19 4-146-1-152-4-5-76 3-87 0v-6z"/><path fill="#232633" d="M1006 1126c18-5 25 24 7 27s-22-23-7-27"/><path fill="#232633" d="M1016 1246c10 10-4 33-19 19-15-13 8-30 19-19"/><path fill="#94aec2" d="M768 628v295c0 3-8 3-8 0V631c0-2 6-4 8-3"/><path fill="#282120" d="M1062 1014c-1 62-7 125-8 188 5 6 35 46 41 45 3 0 35-38 36-40 3-10-3-20-1-30h2c-2 13 6 18 8 28l-4 6c-7 7-37 46-43 46s-41-44-46-52c-4-72 13-155 9-225 10 9 6 23 6 34"/><path fill="#282120" d="M1126 768c-23 24-7 47-6 76l-8 2c-1-8-5-46-8-49-2-2-21-2-22-1-2 2-7 52-8 60l-8 4c0-37 15-52-2-86l-2-4 8-2c1 19 22 25 37 18 2-1 13-25 13-30z"/><path fill="#bcbfc9" d="m1062 770 2 4-20 24h-2c9-12 3-16 20-28"/><path fill="#353a45" d="M1088 1273h-24z"/><path fill="#8286a8" d="M894 486c12 46 23 67 58 100l-101 6c-4 1-1 11-1 14-16 4-4-33-8-40-2-3-17-1-18-2-2-2 7-16-2-21-5-2-19 0-20-1-2-2-1-47-2-56z"/><path fill="#8286a8" d="M788 486c-1 8-2 54-4 56-1 1-14-2-19 2-6 4-2 19-3 20-5 5-13-12-16 14-11-11-18-2-23-2l-20-4c-25 0-55 16-69-18 9-32 17-43 34-70z"/><path fill="#968ba2" d="M746 578v28c-1 1-9-2-12 3v33h-44c-1-7 2-12-3-18-4-5-53-23-63-28 2-17 5-26 10-42 14 34 44 18 69 18l20 4c5 0 12-9 23 2"/><path fill="#5c6d8a" d="M834 606h-82v-34c0-4 75 1 82-1z"/><path fill="#b89890" d="M734 642v68h-22v-38h-22v-30z"/><path fill="#5c6d8a" d="M768 564v-14c2-2 42-3 45-2 10 2 10 15 4 18-2 1-47 0-49-2"/><path fill="#5c6d8a" d="M796 544c-13-10 0-42-4-58 2-1 4 5 4 5z"/><path fill="#282120" d="M986 598c-65-32-88-103-94-172l30 51q16 16 33 29c48 32 25 9 46-14 8-9 49-25 60-26 12 0 21 8 36 6 10-2 16-11 28-12 10-1 49 9 58 14 19 13 10 40 29 37 29-5 76-70 82-99-5 94-44 168-128 213-6 3-41 21-40 7h2l6-4 2-2c3-2 1 2 6-4 7-10 11-11 10-25-4-53-95 33-111 31-6-1-20-60-49-38l-2 2-2 2zm126-48c1 1 6 13 13 18 30 17 63-27 63-55 0-20-13-39-35-39-14 0-108 13-121 17-47 12-33 73 9 83 37 9 35-22 40-24z"/><path fill="#f7ab97" d="M996 596c23-11 32 45 35 46 12 4 93-59 105-53 28 13-34 44-34 48 0 1 8 8 10 14s-3 13-1 17c1 3 11 3 13 11 2 13-8 12-8 14-1 10 29 13-11 43-29 21-65 25-75 68-22-4-47-32-54-52 6-12 18-29 20-42 5-37-4-82 0-114"/><path fill="#9a674f" d="m1142 622-6 4-2 2-6 4h-2c-13 9-15 12 4 14l-10 2v17c0 2 10 4 12 7 4 7-2 16-2 21 0 4 4 5 4 5v6q0 23-18 38l-4 4c-8 5-30 14-42 22q-2-1-8 2c-17 12-11 16-20 28-6 8-6 7-12 6 10-43 46-47 75-68 40-30 10-33 11-43 0-2 10-1 8-14-2-8-12-8-13-11-2-4 2-10 1-17s-10-13-10-14c0-4 62-35 34-48-12-6-93 58-105 53-3-1-12-57-35-46q2-8-4-6c29-22 43 37 49 38 16 2 107-84 111-31 1 14-3 15-10 25"/><path fill="#9a674f" d="m988 594 2-2z"/><path fill="#824a3d" d="M1062 1014c5-1 4 2 5 5 11 33 26 124 41 147 6 10 10 13 22 11-2 10 4 20 1 30-1 2-33 40-36 40-6 1-36-39-41-45 1-63 7-126 8-188"/><path fill="#824a3d" d="M1074 856c1-8 6-58 8-60 1-1 20-1 22 1 3 3 7 41 8 49-12 3-28 6-38 10"/><path fill="#232633" d="M1292 894c-4-19-2-42 3-61 0-3 1-14 7-13l-4 42q0 17-6 32"/><path fill="#5c6d8a" d="M1266 958c-1 1-8-4-10-2-2 1-18 41-23 42-1 0-10-13-17-10-4 2-13 31-17 32-4 0-10-11-17-8-4 2-13 29-14 29-5 3-16-7-17-7-3 0-18 34-23 23-1-1 16-32 18-33 5-2 14 10 18 8 2-1 13-31 17-32 3-1 12 10 17 7l14-31c5-3 16 11 20 9 2-1 18-31 18-33 0-6-10-2-4-9 21-27 25 9 20 15"/><path fill="#7082aa" d="M1150 1117c-9-4-26-8-6-10-20-11-11-30 8-21-16 8-2 11 8 15q-10 6-10 16"/><path fill="#353a45" d="m1238 884-6 8c31 7-22 19 6 4-5 1-21-7-24-2-8 13 23 2 9 11-8 6-12-4-21 1 8-17 19-19 36-22"/><path fill="#7082aa" d="M1176 1097c-16-4 8-34 17-24 8 9-11 5-11 9 0 1 12 3 10 8-1 3-19 6 2 5z"/><path fill="#353a45" d="M1160 906c1 0-1 7 1 10s14-3 8 4c-8 8-25 0-33 10 4-24 4-28 20-8-2-5-3-25 4-16"/><path fill="#454a56" d="M1114 902c1-3 8-31 19-12 10 17-12 13-19 12"/><path fill="#353a45" d="M1168 947c-7-5-1-27 12-19 11 8-2 27-12 19"/><path fill="#353a45" d="M1259 919c0 4-12 11-15 9-14-13 18-36 15-9"/><path fill="#353a45" d="M1174 889c-4 7-26 3-17-11 6-10 23-1 17 11"/><path fill="#353a45" d="m1196 866 4 18c-13-10-6-2-10 0l-6-2s0 8-3 8-6-19-5-20c3-3 11 10 14 8 1-1 1-18 6-12"/><path fill="#353a45" d="M1242 930c-2 2-10-6-12-4-1 0 3 5 2 6-9 8-13-32 5-19 1 1 6 16 5 17"/><path fill="#353a45" d="M1132 912c1 0 3 17 2 18-3 3-11-7-12-6-2 2 4 11-4 10-6-28 2-14 7-16 2-1 4-9 7-6m-5 8v2l1-1z"/><path fill="#353a45" d="M1154 898c-1 1-11-9-12-8s3 8 2 10c-5 7-10-15-8-18 4-5 11 17 13-4 4 2 6 18 5 20"/><path fill="#353a45" d="m1238 856-8 6c25-1 5 19-2 14-7-6 7-6 8-8-16 1-13-15 2-12"/><path fill="#353a45" d="M1146 948v-12c12 12 7 1 16-4l4 18c-10 2-3-7-9-6-11 0 3 12-8 10-2-1 0-5-3-6-3 8-2 11-14 10l8-4c2-8-8-3-10-4-4-4 5-16 12-12l-8 8q6-2 12 2"/><path fill="#353a45" d="M1202 939c-7 7-23 0-17-11 7-14 28-1 17 11m-9-13c-8 1-4 14 4 12 6-2 2-13-4-12"/><path fill="#353a45" d="M1130 960q-3-2-9-2c-2 1-7 8-9 6-1-1 3-18 4-19 6-5 16 13 14 15"/><path fill="#353a45" d="M1116 936c-1 0-11-5-18 4-2-41 21-7 18-4"/><path fill="#232633" d="M1108 950c8 9-5 23-14 17-11-7 3-28 13-17m-1 4c-5-8-16 6-7 10 6 2 9-6 7-10"/><path fill="#353a45" d="M1098 908c2-6-3-25 14-15-24 12-8 7 2 9-5 12-4 6-16 6-7 21-31-7-8-14l-4 8 8 4-6 4z"/><path fill="#353a45" d="M1224 934c-1 0-12-5-18 4 0-40 20-6 18-4"/><path fill="#353a45" d="M1224 864c-8-4-14 5-10 10 1 1 19-6 10 3-16 13-26-29 0-13"/><path fill="#454a56" d="m1184 898 4 4c-13-2-6 13-8 16-3 4-15-15-14-16 2-2 7 5 10 4 1-1-3-4 8-8"/><path fill="#353a45" d="M1184 898q6-4 14-4c-6 8-2 10-2 20-6 0-5-8-8-12z"/><path fill="#8286a8" d="M1552 584h-40c5-20-8-51-8-10l-70 2c0-11 3-75 0-78-4-5-112 48-116 53-4 6-2 28-2 37-24-14-52 2-74-12 28-29 35-46 46-84l226-6c19 30 35 61 38 98"/><path fill="#be876e" d="M1156 640c7 6 3 13 2 20l-26 12c-2-3-12-6-12-7v-17l10-2z"/><path fill="#f7ab97" d="M1158 660c-3 19-9 25-24 38 0 0-4-1-4-5 0-5 6-14 2-21z"/><path fill="#8286a8" d="M1322 584c0-8-2-23 2-29 3-5 94-48 99-49q4 0 3 4-15 36-26 74z"/><path fill="#3b3d5d" d="M1534 778h8v6h-88c-22 0-60 3-80 0h-2q0-5 4-6c33-7 119 0 158 0"/><path fill="#8286a8" d="m1396 592-4 12h-70v-12z"/><path fill="#8286a8" d="m1390 612-4 12h-64v-12z"/><path fill="#8286a8" d="m1384 632-4 10h-58v-10z"/><path fill="#8286a8" d="m1378 652-4 10h-52v-10z"/><path fill="#94aec2" d="m1400 584-4 8h-74v-8z"/><path fill="#8286a8" d="m1372 670-4 12h-46v-12z"/><path fill="#94aec2" d="m1392 604-2 8h-68v-8z"/><path fill="#94aec2" d="m1386 624-2 8h-62v-8z"/><path fill="#8286a8" d="m1364 690-4 12h-38v-12z"/><path fill="#8286a8" d="m1358 710-4 12h-32v-12z"/><path fill="#94aec2" d="m1380 642-2 10h-56v-10z"/><path fill="#94aec2" d="m1374 662-2 8h-50v-8z"/><path fill="#94aec2" d="m1368 682-4 8h-42v-8z"/><path fill="#94aec2" d="m1360 702-2 8h-36v-8z"/><path fill="#435686" d="M1388 754v12c-1 1-28-2-12 12q-4 1-4 6c-8-3-8-16-5-20 3-5 8 2 17-8z"/><path fill="#5c6d8a" d="M1556 590c2 9 1 28 2 38-8 2-64-2-66 0v10c2 2 59-2 68 0l-2 32c-8 2-62-2-64 0-14 14 35 10 42 10 5 5 17 0 22 2l2 2v36c-6-2-6 7 0 6v34c-6-4-7 24 0 22v32c-9 3 0 23-14 24q-3-27-2-54h8c1-1-2-21-2-22-2-2-12-1-14-3-4-3 0-10-4-14-5-6-48-29-48-32V606c20 5 9-13 12-16 2-2 52 2 60 0"/><path fill="#8286a8" d="M1530 766c4 4 9 1 14 2 6 5-1 8-2 10h-8c-39 0-125-7-158 0-16-14 11-11 12-12v-12c3-7 65-48 71-48 4 0 65 39 67 43 4 6 0 12 4 17"/><path fill="#968ba2" d="M1504 574v10c-25 3-9 11-14 16h-12c-3 3 0 67 0 78l-44 2V576z"/><path fill="#8286a8" d="M1542 784h2q-1 27 2 54v16h-100l4-12c22 5 17-11 16-28l16-8v36h18v-41c0-4-4-5-4-5l2-12zm-28 12c-2 1 1 39 0 46 26 14 19-43 16-45-1-2-15-2-16-1"/><path fill="#b89890" d="M1478 678v28h-4c-6-1-11-8-15-8s-15 10-21 12h-4c-2-5 0-23 0-30z"/><path fill="#5c6d8a" d="M1512 584h-8v-10c0-41 13-10 8 10"/><path fill="#435686" d="M1544 768c-5-1-10 1-14-2 5 0 10-2 14 2"/><path fill="#968ba2" d="M1438 710s-2 5-4 0z"/><path fill="#968ba2" d="M1478 706c-2 5-4 0-4 0z"/><path fill="#f7ab97" d="M1230 1097c30 5 37 52 44 76-17 18-29 51-59 41-9-3-7-9-10-10-7-3-15 5-26-3-15-11 15-9 5-16-7-4-32 20-42 5s26-28 37-39c40-38-19-10-23-33-3-17 58-16 74-21"/><path fill="#ca8c85" d="M1236 1095c24 8 49 45 48 70l-10 8c-7-24-14-71-44-76q2-2 6-2"/><path fill="#94aec2" d="m1498 784-2 12h-14v10l-16 8v-18h-16c-2 1 1 38 0 46l-4 12h-44c2-10 6-28 16-32 0 5-2 16 2 20 3 3 12 3 14 0v-40l20-18z"/><path fill="#484f67" d="M1418 822v-26c1-2 15-4 16 6v40h-14c-4-4-2-15-2-20"/><path fill="#686c7c" d="M1560 814v54c-9 3-12-6-14-14v-16c14-1 5-21 14-24"/><path fill="#824a3d" d="m1112 746 8 10c0 5-11 29-13 30-15 7-36 1-37-18 12-8 34-17 42-22"/><path fill="#686c7c" d="M1734 988v54h-184v-53c0-10 172 1 184-1m-58 38c1-1 2-26-5-24-6 1-4 35 5 24m20 0c1-1 2-26-5-24-6 1-4 35 5 24m15-24c-5 1-5 27 2 26 5-2 5-28-2-26m-142 4c-11 4-3 21 9 15 8-5 2-19-9-15"/><path fill="#686c7c" d="M1734 1061v53l-3 3h-178l-3-3v-50l3-3zm-58 16c-12-15-9 43 0 21zm20 0c-12-15-9 43 0 21zm20 0c-11-13-11 38 0 24zm-143 3c-10 0-14 18 0 18s10-18 0-18"/><path fill="#94aec2" d="M1567 934c7-7 20 2 13 11s-22-3-13-11"/><path fill="#d1b1a8" d="M1676 952c-12 15-9-43 0-21z"/><path fill="#ca8c85" d="M1716 952c-9 11-11-23-5-24 7-2 6 23 5 24"/><path fill="#8286a8" d="M1696 952c-9 11-11-23-5-24 7-2 6 23 5 24"/><path fill="#94aec2" d="m1558 628 2 10c-9-2-66 2-68 0v-10c2-2 58 2 66 0"/><path fill="#94aec2" d="M1558 670s4 8 2 10h-24c-7 0-56 4-42-10 2-2 56 2 64 0"/><path fill="#686c7c" d="M1560 760v22c-7 2-6-26 0-22"/><path fill="#686c7c" d="M1560 720v6c-6 1-6-8 0-6"/><path fill="#686c7c" d="m1560 684-2-2z"/><path fill="#a97457" d="M1310 376c5-14 35-47 44-22-61 0-4 43-34 70-13-1 0-6 2-15s-1-34-14-27z"/><path fill="#282120" d="M1296 404h-2v4h2z"/><path fill="#282120" d="M892 416h-2v4h2z"/><path fill="#628259" fill-opacity=".99" d="M994 314c10-1 24 2 32 8 12 10 14 29 8 42l-14-8c3-10-2-25-13-27-6-1-10 3-11 3-5 0-16-13-18 8-1 0-7 3-10 2 2-12 13-26 26-28"/><path fill="#628259" fill-opacity=".99" d="m978 340 6 6c5 10-3 24 22 22-9 8 0 13 10 12-29 12-52-7-48-38 3 1 9-2 10-2"/><path fill="#628259" fill-opacity=".99" d="M1034 364q-5 13-18 16c-10 1-19-4-10-12 4-3 11-2 14-12z"/><path fill="#fdfdfd" fill-opacity=".99" d="m1028 320-2 2c-8-6-22-9-32-8l8-4c13 1 16 4 26 10"/><path fill="#628259" fill-opacity=".99" d="m1210 366-14-10c3-10 0-24-11-27-4-2-9 2-11 1-2 0-6-5-9-5-13-1-16 23-1 19q-4 8 0 16c-10-1-6 7-10 12-13-14-14-39 2-52 2-2 16-8 18-8 31-3 48 27 36 54"/><path fill="#628259" fill-opacity=".99" d="M1164 360q8 11 20 8 1 11 10 14c-14 6-30 1-40-10 4-5 0-13 10-12"/><path fill="#628259" fill-opacity=".99" d="M1210 366c-3 6-10 14-16 16q-9-3-10-14c5-1 11-8 12-12z"/><path fill="#be876e" d="M862 368c-8 23-13 37 2 58-29-1-41-46-34-70 16-6 21 3 32 12"/><path fill="#9a674f" d="M866 366c10 24-4 19-4 35 1 12 20 26 2 25-15-21-10-35-2-58z"/><path fill="#a97457" d="m866 366-4 2c-11-9-16-18-32-12 7-22 30-5 36 10"/><path fill="#5c6d8a" d="M690 642v30h-70q0-39 4-76c10 5 59 23 63 28 5 6 2 11 3 18"/><path fill="#be876e" d="M1354 354c8 23-4 73-34 70 30-27-27-70 34-70"/><path fill="#686c7c" d="M569 1071c-9-9 5-24 14-13 8 9-6 21-14 13"/><path fill="#484f67" d="M716 852v172c-22-11-282 12-282-2V854h275q2-2 7-2m-230 20c-8-9-50 28-21 59 30 32 69-13 61-19-14-13-32 29-50 7-17-21 22-35 10-47m40 34c7-7-12-31-22-33-35-9 11 44 22 33m172-34c-4-4-98 0-112 0v8h112zm-18 16c-4-3-82 0-94 0v6h91c1 0 4-5 3-6m-26 14c-3-2-59 0-68 0v6h51c3 0 27 1 17-6m-14 16c-2-2-47 0-54 0v6h54zm54 18h-14v72h14zm-24 16h-14v56h14zm-48 6c-2 3-14 3-14 4v46h14zm-170 2c-1 2 1 8 3 8h90c3 0 3-8 0-8zm2 14v2c-5 6-1 7 0 12v10c3 2 71 1 77 0 9-2 10-9 4-12-6-2-32 0-37-3-3-2 1-12-11-13-8-1-25 2-33 4m192 2h-14v32h14zm-48 10c-13-13-18 18-14 22 13 12 18-18 14-22m-90 16c-2-2-46 0-53 0q-3 1-3 6h56z"/><path fill="#94aec2" d="M696 818h-69c-4 0-4-10 0-10h66c3 0 4 7 3 10"/><path fill="#94aec2" d="M696 714v10h-69c-4 0-6-10 4-10 9 0 63-2 65 0"/><path fill="#94aec2" d="M696 790v8h-72c-1-2 1-8 3-8 9 0 66-2 69 0"/><path fill="#94aec2" d="M696 772v8h-69c-2 0-4-6-3-8 9 1 69-2 72 0"/><path fill="#94aec2" d="M696 734v8h-72c-1-2 1-8 3-8 9 0 66-2 69 0"/><path fill="#94aec2" d="M696 752v8h-72c-1-2 1-8 3-8 9 0 66-2 69 0"/><path fill="#94aec2" d="M696 696v8h-70v-8c9 0 67-2 70 0"/><path fill="#12090a" d="M1112 550h-31c-5 2-3 33-40 24-42-10-56-71-9-83 13-4 107-17 121-17 22 0 35 19 35 39 0 28-33 72-63 55-7-5-12-17-13-18m-44-10h56c-10 3-5 9 0 15 35 34 86-64 31-73-28 15-130 3-141 33-12 34 32 68 53 45 5-6 10-17 1-20"/><path fill="#12090a" d="M1142 622c-5 6-3 2-6 4z"/><path fill="#12090a" d="m1134 628-6 4z"/><path fill="#d3f6f9" d="m1127 920 1 1-1 1z"/><path fill="#d3f6f9" d="M1193 926c6-1 10 10 4 12-8 2-12-11-4-12"/><path fill="#bcbfc9" d="M1106 954c2 4-1 12-7 10-9-4 2-18 7-10"/><path fill="#484f67" d="M1496 796s4 1 4 5v41h-18v-46z"/><path fill="#484f67" d="M1514 796c1-1 15-1 16 1 3 2 10 59-16 45 1-7-2-45 0-46"/><path fill="#484f67" d="M1450 842c1-8-2-45 0-46h16v18c1 17 6 33-16 28"/><path fill="#8286a8" d="M1434 842c-2 3-11 3-14 0z"/><path fill="#94aec2" d="M1569 1006c11-4 17 10 9 15-12 6-20-11-9-15"/><path fill="#ca8c85" d="M1711 1002c7-2 7 24 2 26-7 1-7-25-2-26"/><path fill="#d1b1a8" d="M1676 1026c-9 11-11-23-5-24 7-2 6 23 5 24"/><path fill="#8286a8" d="M1696 1026c-9 11-11-23-5-24 7-2 6 23 5 24"/><path fill="#94aec2" d="M1573 1080c10 0 14 18 0 18s-10-18 0-18"/><path fill="#ca8c85" d="M1716 1077v24c-11 14-11-37 0-24"/><path fill="#bcbfc9" d="M1676 1077v21c-9 22-12-36 0-21"/><path fill="#94aec2" d="M1696 1077v21c-9 22-12-36 0-21"/><path fill="#000" fill-opacity=".99" d="M1020 356c-3 10-10 9-14 12-25 2-17-12-22-22 8 2 16-6 12-14 1 0 5-4 11-3 11 2 16 17 13 27"/><path fill="#fdfdfc" fill-opacity=".99" d="M996 333c5 8-4 15-12 14l-6-6c2-22 14-8 18-8"/><path fill="#000" fill-opacity=".99" d="M1196 356c-1 4-7 11-12 12q-12 3-20-8-4-8 0-16c1-1 14-1 10-14 2 1 7-3 11-1 11 3 14 17 11 27"/><path fill="#fdfdfc" fill-opacity=".99" d="M1174 330c4 13-9 13-10 14-15 4-12-20 1-19 3 0 7 5 9 5"/><path fill="#94aec2" d="M486 872c12 12-27 26-10 47 18 22 36-20 50-7 8 6-31 51-61 19-29-31 13-68 21-59"/><path fill="#94aec2" d="M694 936v72h-14v-72z"/><path fill="#824a3d" d="M454 974c8-2 25-5 33-4 12 1 8 11 11 13 5 3 31 1 37 3 6 3 5 10-4 12-6 1-74 2-77 0v-4c16-3 43 3 57 0q6-2 3-5c-2-3-52 0-60-1-1-5-5-6 0-12 1 6 44 6 38-1-1-2-36-2-38-1"/><path fill="#8286a8" d="M698 872v8H586v-8c14 0 108-4 112 0"/><path fill="#8286a8" d="M670 952v56h-14v-56z"/><path fill="#8286a8" d="M452 960h93c3 0 3 8 0 8h-90c-2 0-4-6-3-8"/><path fill="#ca8c85" d="M526 906c-11 11-57-42-22-33 10 2 29 26 22 33"/><path fill="#7082aa" d="M622 958v50h-14v-46c0-1 12-1 14-4"/><path fill="#94aec2" d="M680 888c1 1-2 6-3 6h-91v-6c12 0 90-3 94 0"/><path fill="#ca8c85" d="M646 976v32h-14v-32z"/><path fill="#94aec2" d="M654 902c10 7-14 6-17 6h-51v-6c9 0 65-2 68 0"/><path fill="#d1b1a8" d="M454 988c8 1 58-2 60 1q3 3-3 5c-14 3-41-3-57 0z"/><path fill="#94aec2" d="M508 1002v6h-56q0-4 3-6c7 0 51-2 53 0"/><path fill="#94aec2" d="M640 918v6h-54v-6c7 0 52-2 54 0"/><path fill="#d3b6ad" d="M598 986c4 4-1 34-14 22-4-4 1-35 14-22"/><path fill="#ca8c85" d="M454 974c2-1 37-1 38 1 6 7-37 7-38 1z"/><path fill="#f7ab97" d="M1068 540c9 3 4 14-1 20-21 23-65-11-53-45 11-30 113-18 141-33 55 9 4 107-31 73-5-6-10-12 0-15zm96-52c-2-2-37 18-52 19-4 1-93-2-76 13 3 3 73-3 82-5 4-1 56-17 46-27"/><path fill="#a97457" d="M1164 488c10 10-42 26-46 27-9 2-79 8-82 5-17-15 72-12 76-13 15-1 50-21 52-19"/></svg>